{
    "asset" : {
        "generator" : "Khronos glTF Blender I/O v1.6.16",
        "version" : "2.0"
    },
    "scene" : 0,
    "scenes" : [
        {
            "name" : "Scene",
            "nodes" : [
                0
            ]
        }
    ],
    "nodes" : [
        {
            "mesh" : 0,
            "name" : "Road_T-junc",
            "translation" : [
                0,
                0,
                0
            ]
        }
    ],
    "materials" : [
        {
            "doubleSided" : true,
            "name" : "Black",
            "pbrMetallicRoughness" : {
                "baseColorFactor" : [
                    0.09989873319864273,
                    0.08865559101104736,
                    0.07818741351366043,
                    1
                ],
                "metallicFactor" : 0,
                "roughnessFactor" : 0.5
            }
        },
        {
            "doubleSided" : true,
            "name" : "White",
            "pbrMetallicRoughness" : {
                "baseColorFactor" : [
                    0.49693313241004944,
                    0.49102094769477844,
                    0.49102094769477844,
                    1
                ],
                "metallicFactor" : 0,
                "roughnessFactor" : 0.5
            }
        }
    ],
    "meshes" : [
        {
            "name" : "Plane.003",
            "primitives" : [
                {
                    "attributes" : {
                        "POSITION" : 0,
                        "NORMAL" : 1,
                        "TEXCOORD_0" : 2
                    },
                    "indices" : 3,
                    "material" : 0
                },
                {
                    "attributes" : {
                        "POSITION" : 4,
                        "NORMAL" : 5,
                        "TEXCOORD_0" : 6
                    },
                    "indices" : 7,
                    "material" : 1
                }
            ]
        }
    ],
    "accessors" : [
        {
            "bufferView" : 0,
            "componentType" : 5126,
            "count" : 22,
            "max" : [
                1.75,
                0,
                1.75
            ],
            "min" : [
                -1.75,
                0,
                -1.75
            ],
            "type" : "VEC3"
        },
        {
            "bufferView" : 1,
            "componentType" : 5126,
            "count" : 22,
            "type" : "VEC3"
        },
        {
            "bufferView" : 2,
            "componentType" : 5126,
            "count" : 22,
            "type" : "VEC2"
        },
        {
            "bufferView" : 3,
            "componentType" : 5123,
            "count" : 36,
            "type" : "SCALAR"
        },
        {
            "bufferView" : 4,
            "componentType" : 5126,
            "count" : 17,
            "max" : [
                1.75,
                0,
                1.75
            ],
            "min" : [
                -1.75,
                0,
                -1.4807692766189575
            ],
            "type" : "VEC3"
        },
        {
            "bufferView" : 5,
            "componentType" : 5126,
            "count" : 17,
            "type" : "VEC3"
        },
        {
            "bufferView" : 6,
            "componentType" : 5126,
            "count" : 17,
            "type" : "VEC2"
        },
        {
            "bufferView" : 7,
            "componentType" : 5123,
            "count" : 30,
            "type" : "SCALAR"
        }
    ],
    "bufferViews" : [
        {
            "buffer" : 0,
            "byteLength" : 264,
            "byteOffset" : 0
        },
        {
            "buffer" : 0,
            "byteLength" : 264,
            "byteOffset" : 264
        },
        {
            "buffer" : 0,
            "byteLength" : 176,
            "byteOffset" : 528
        },
        {
            "buffer" : 0,
            "byteLength" : 72,
            "byteOffset" : 704
        },
        {
            "buffer" : 0,
            "byteLength" : 204,
            "byteOffset" : 776
        },
        {
            "buffer" : 0,
            "byteLength" : 204,
            "byteOffset" : 980
        },
        {
            "buffer" : 0,
            "byteLength" : 136,
            "byteOffset" : 1184
        },
        {
            "buffer" : 0,
            "byteLength" : 60,
            "byteOffset" : 1320
        }
    ],
    "buffers" : [
        {
            "byteLength" : 1380,
            "uri" : "Road_T-junc.bin"
        }
    ]
}
