{
    "asset" : {
        "generator" : "Khronos glTF Blender I/O v1.6.16",
        "version" : "2.0"
    },
    "scene" : 0,
    "scenes" : [
        {
            "name" : "Scene",
            "nodes" : [
                1
            ]
        }
    ],
    "nodes" : [
        {
            "mesh" : 0,
            "name" : "Plane.009",
            "scale" : [
                0.007000000216066837,
                0.017045455053448677,
                0.007000000216066837
            ]
        },
        {
            "children" : [
                0
            ],
            "mesh" : 1,
            "name" : "building_018",
            "translation" : [
                0,
                0,
                0
            ]
        }
    ],
    "materials" : [
        {
            "doubleSided" : true,
            "name" : "grass",
            "pbrMetallicRoughness" : {
                "baseColorFactor" : [
                    0.1336236149072647,
                    0.3620589077472687,
                    0.07870397716760635,
                    1
                ],
                "metallicFactor" : 0,
                "roughnessFactor" : 0.5
            }
        },
        {
            "doubleSided" : true,
            "name" : "Wall.003",
            "pbrMetallicRoughness" : {
                "baseColorFactor" : [
                    0.630214273929596,
                    0.5588722825050354,
                    0.43476149439811707,
                    1
                ],
                "metallicFactor" : 0,
                "roughnessFactor" : 0.5
            }
        },
        {
            "doubleSided" : true,
            "name" : "Roof.003",
            "pbrMetallicRoughness" : {
                "baseColorFactor" : [
                    0,
                    0.0016926751704886556,
                    0.1678604632616043,
                    1
                ],
                "metallicFactor" : 0,
                "roughnessFactor" : 0.5
            }
        },
        {
            "doubleSided" : true,
            "name" : "Door",
            "pbrMetallicRoughness" : {
                "baseColorTexture" : {
                    "index" : 0
                },
                "metallicFactor" : 0,
                "roughnessFactor" : 0.5
            }
        },
        {
            "doubleSided" : true,
            "name" : "Window",
            "pbrMetallicRoughness" : {
                "baseColorTexture" : {
                    "index" : 1
                },
                "metallicFactor" : 0,
                "roughnessFactor" : 0.5
            }
        }
    ],
    "meshes" : [
        {
            "name" : "Plane.009",
            "primitives" : [
                {
                    "attributes" : {
                        "POSITION" : 0,
                        "NORMAL" : 1,
                        "TEXCOORD_0" : 2
                    },
                    "indices" : 3,
                    "material" : 0
                }
            ]
        },
        {
            "name" : "building_018_mesh.001",
            "primitives" : [
                {
                    "attributes" : {
                        "POSITION" : 4,
                        "NORMAL" : 5,
                        "TEXCOORD_0" : 6
                    },
                    "indices" : 7,
                    "material" : 1
                },
                {
                    "attributes" : {
                        "POSITION" : 8,
                        "NORMAL" : 9,
                        "TEXCOORD_0" : 10
                    },
                    "indices" : 11,
                    "material" : 2
                },
                {
                    "attributes" : {
                        "POSITION" : 12,
                        "NORMAL" : 13,
                        "TEXCOORD_0" : 14
                    },
                    "indices" : 3,
                    "material" : 3
                },
                {
                    "attributes" : {
                        "POSITION" : 15,
                        "NORMAL" : 16,
                        "TEXCOORD_0" : 17
                    },
                    "indices" : 18,
                    "material" : 4
                }
            ]
        }
    ],
    "textures" : [
        {
            "sampler" : 0,
            "source" : 0
        },
        {
            "sampler" : 0,
            "source" : 1
        }
    ],
    "images" : [
        {
            "mimeType" : "image/jpeg",
            "name" : "door",
            "uri" : "door.jpg"
        },
        {
            "mimeType" : "image/jpeg",
            "name" : "window",
            "uri" : "window.jpg"
        }
    ],
    "accessors" : [
        {
            "bufferView" : 0,
            "componentType" : 5126,
            "count" : 4,
            "max" : [
                500,
                0,
                500
            ],
            "min" : [
                -500,
                0,
                -500
            ],
            "type" : "VEC3"
        },
        {
            "bufferView" : 1,
            "componentType" : 5126,
            "count" : 4,
            "type" : "VEC3"
        },
        {
            "bufferView" : 2,
            "componentType" : 5126,
            "count" : 4,
            "type" : "VEC2"
        },
        {
            "bufferView" : 3,
            "componentType" : 5123,
            "count" : 6,
            "type" : "SCALAR"
        },
        {
            "bufferView" : 4,
            "componentType" : 5126,
            "count" : 221,
            "max" : [
                2.8815369606018066,
                4.601099967956543,
                3.257802963256836
            ],
            "min" : [
                -2.8688905239105225,
                2.384185791015625e-07,
                -2.548403263092041
            ],
            "type" : "VEC3"
        },
        {
            "bufferView" : 5,
            "componentType" : 5126,
            "count" : 221,
            "type" : "VEC3"
        },
        {
            "bufferView" : 6,
            "componentType" : 5126,
            "count" : 221,
            "type" : "VEC2"
        },
        {
            "bufferView" : 7,
            "componentType" : 5123,
            "count" : 339,
            "type" : "SCALAR"
        },
        {
            "bufferView" : 8,
            "componentType" : 5126,
            "count" : 130,
            "max" : [
                2.8815369606018066,
                4.701099872589111,
                3.6077780723571777
            ],
            "min" : [
                -2.8688905239105225,
                1.6117736101150513,
                -2.548403263092041
            ],
            "type" : "VEC3"
        },
        {
            "bufferView" : 9,
            "componentType" : 5126,
            "count" : 130,
            "type" : "VEC3"
        },
        {
            "bufferView" : 10,
            "componentType" : 5126,
            "count" : 130,
            "type" : "VEC2"
        },
        {
            "bufferView" : 11,
            "componentType" : 5123,
            "count" : 204,
            "type" : "SCALAR"
        },
        {
            "bufferView" : 12,
            "componentType" : 5126,
            "count" : 4,
            "max" : [
                2.270907402038574,
                1.5974514484405518,
                3.1669740676879883
            ],
            "min" : [
                1.628966212272644,
                2.384185791015625e-07,
                3.1607398986816406
            ],
            "type" : "VEC3"
        },
        {
            "bufferView" : 13,
            "componentType" : 5126,
            "count" : 4,
            "type" : "VEC3"
        },
        {
            "bufferView" : 14,
            "componentType" : 5126,
            "count" : 4,
            "type" : "VEC2"
        },
        {
            "bufferView" : 15,
            "componentType" : 5126,
            "count" : 44,
            "max" : [
                2.7734861373901367,
                3.7150766849517822,
                3.166938304901123
            ],
            "min" : [
                -2.760840654373169,
                0.35182416439056396,
                -2.4575743675231934
            ],
            "type" : "VEC3"
        },
        {
            "bufferView" : 16,
            "componentType" : 5126,
            "count" : 44,
            "type" : "VEC3"
        },
        {
            "bufferView" : 17,
            "componentType" : 5126,
            "count" : 44,
            "type" : "VEC2"
        },
        {
            "bufferView" : 18,
            "componentType" : 5123,
            "count" : 66,
            "type" : "SCALAR"
        }
    ],
    "bufferViews" : [
        {
            "buffer" : 0,
            "byteLength" : 48,
            "byteOffset" : 0
        },
        {
            "buffer" : 0,
            "byteLength" : 48,
            "byteOffset" : 48
        },
        {
            "buffer" : 0,
            "byteLength" : 32,
            "byteOffset" : 96
        },
        {
            "buffer" : 0,
            "byteLength" : 12,
            "byteOffset" : 128
        },
        {
            "buffer" : 0,
            "byteLength" : 2652,
            "byteOffset" : 140
        },
        {
            "buffer" : 0,
            "byteLength" : 2652,
            "byteOffset" : 2792
        },
        {
            "buffer" : 0,
            "byteLength" : 1768,
            "byteOffset" : 5444
        },
        {
            "buffer" : 0,
            "byteLength" : 678,
            "byteOffset" : 7212
        },
        {
            "buffer" : 0,
            "byteLength" : 1560,
            "byteOffset" : 7892
        },
        {
            "buffer" : 0,
            "byteLength" : 1560,
            "byteOffset" : 9452
        },
        {
            "buffer" : 0,
            "byteLength" : 1040,
            "byteOffset" : 11012
        },
        {
            "buffer" : 0,
            "byteLength" : 408,
            "byteOffset" : 12052
        },
        {
            "buffer" : 0,
            "byteLength" : 48,
            "byteOffset" : 12460
        },
        {
            "buffer" : 0,
            "byteLength" : 48,
            "byteOffset" : 12508
        },
        {
            "buffer" : 0,
            "byteLength" : 32,
            "byteOffset" : 12556
        },
        {
            "buffer" : 0,
            "byteLength" : 528,
            "byteOffset" : 12588
        },
        {
            "buffer" : 0,
            "byteLength" : 528,
            "byteOffset" : 13116
        },
        {
            "buffer" : 0,
            "byteLength" : 352,
            "byteOffset" : 13644
        },
        {
            "buffer" : 0,
            "byteLength" : 132,
            "byteOffset" : 13996
        }
    ],
    "samplers" : [
        {
            "magFilter" : 9729,
            "minFilter" : 9987
        }
    ],
    "buffers" : [
        {
            "byteLength" : 14128,
            "uri" : "House.003.bin"
        }
    ]
}
