{
    "asset" : {
        "generator" : "Khronos glTF Blender I/O v1.6.16",
        "version" : "2.0"
    },
    "scene" : 0,
    "scenes" : [
        {
            "name" : "Scene",
            "nodes" : [
                1
            ]
        }
    ],
    "nodes" : [
        {
            "mesh" : 0,
            "name" : "Plane.008",
            "rotation" : [
                0,
                1,
                0,
                1.6292069915380125e-07
            ],
            "scale" : [
                0.007000000216066837,
                0.017045455053448677,
                0.007000000216066837
            ],
            "translation" : [
                0,
                0,
                0
            ]
        },
        {
            "children" : [
                0
            ],
            "mesh" : 1,
            "name" : "building_016",
            "rotation" : [
                0,
                1,
                0,
                -1.6292068494294654e-07
            ],
            "translation" : [
                0,
                0,
                0
            ]
        }
    ],
    "materials" : [
        {
            "doubleSided" : true,
            "name" : "grass",
            "pbrMetallicRoughness" : {
                "baseColorFactor" : [
                    0.1336236149072647,
                    0.3620589077472687,
                    0.07870397716760635,
                    1
                ],
                "metallicFactor" : 0,
                "roughnessFactor" : 0.5
            }
        },
        {
            "doubleSided" : true,
            "name" : "Wall.003",
            "pbrMetallicRoughness" : {
                "baseColorFactor" : [
                    0.630214273929596,
                    0.5588722825050354,
                    0.43476149439811707,
                    1
                ],
                "metallicFactor" : 0,
                "roughnessFactor" : 0.5
            }
        },
        {
            "doubleSided" : true,
            "name" : "Roof.003",
            "pbrMetallicRoughness" : {
                "baseColorFactor" : [
                    0,
                    0.0016926751704886556,
                    0.1678604632616043,
                    1
                ],
                "metallicFactor" : 0,
                "roughnessFactor" : 0.5
            }
        },
        {
            "doubleSided" : true,
            "name" : "Door",
            "pbrMetallicRoughness" : {
                "baseColorTexture" : {
                    "index" : 0
                },
                "metallicFactor" : 0,
                "roughnessFactor" : 0.5
            }
        },
        {
            "doubleSided" : true,
            "name" : "Window",
            "pbrMetallicRoughness" : {
                "baseColorTexture" : {
                    "index" : 1
                },
                "metallicFactor" : 0,
                "roughnessFactor" : 0.5
            }
        }
    ],
    "meshes" : [
        {
            "name" : "Plane.008",
            "primitives" : [
                {
                    "attributes" : {
                        "POSITION" : 0,
                        "NORMAL" : 1,
                        "TEXCOORD_0" : 2
                    },
                    "indices" : 3,
                    "material" : 0
                }
            ]
        },
        {
            "name" : "building_016_mesh",
            "primitives" : [
                {
                    "attributes" : {
                        "POSITION" : 4,
                        "NORMAL" : 5,
                        "TEXCOORD_0" : 6
                    },
                    "indices" : 7,
                    "material" : 1
                },
                {
                    "attributes" : {
                        "POSITION" : 8,
                        "NORMAL" : 9,
                        "TEXCOORD_0" : 10
                    },
                    "indices" : 11,
                    "material" : 2
                },
                {
                    "attributes" : {
                        "POSITION" : 12,
                        "NORMAL" : 13,
                        "TEXCOORD_0" : 14
                    },
                    "indices" : 15,
                    "material" : 3
                },
                {
                    "attributes" : {
                        "POSITION" : 16,
                        "NORMAL" : 17,
                        "TEXCOORD_0" : 18
                    },
                    "indices" : 19,
                    "material" : 4
                }
            ]
        }
    ],
    "textures" : [
        {
            "sampler" : 0,
            "source" : 0
        },
        {
            "sampler" : 0,
            "source" : 1
        }
    ],
    "images" : [
        {
            "mimeType" : "image/jpeg",
            "name" : "door",
            "uri" : "door.jpg"
        },
        {
            "mimeType" : "image/jpeg",
            "name" : "window",
            "uri" : "window.jpg"
        }
    ],
    "accessors" : [
        {
            "bufferView" : 0,
            "componentType" : 5126,
            "count" : 4,
            "max" : [
                500,
                0,
                500
            ],
            "min" : [
                -500,
                0,
                -500
            ],
            "type" : "VEC3"
        },
        {
            "bufferView" : 1,
            "componentType" : 5126,
            "count" : 4,
            "type" : "VEC3"
        },
        {
            "bufferView" : 2,
            "componentType" : 5126,
            "count" : 4,
            "type" : "VEC2"
        },
        {
            "bufferView" : 3,
            "componentType" : 5123,
            "count" : 6,
            "type" : "SCALAR"
        },
        {
            "bufferView" : 4,
            "componentType" : 5126,
            "count" : 178,
            "max" : [
                4.742330551147461,
                4.930742263793945,
                2.035590887069702
            ],
            "min" : [
                -2.004392623901367,
                0,
                -4.079883575439453
            ],
            "type" : "VEC3"
        },
        {
            "bufferView" : 5,
            "componentType" : 5126,
            "count" : 178,
            "type" : "VEC3"
        },
        {
            "bufferView" : 6,
            "componentType" : 5126,
            "count" : 178,
            "type" : "VEC2"
        },
        {
            "bufferView" : 7,
            "componentType" : 5123,
            "count" : 312,
            "type" : "SCALAR"
        },
        {
            "bufferView" : 8,
            "componentType" : 5126,
            "count" : 188,
            "max" : [
                4.842330455780029,
                5.030742168426514,
                2.1355907917022705
            ],
            "min" : [
                -2.1043925285339355,
                2,
                -4.1798834800720215
            ],
            "type" : "VEC3"
        },
        {
            "bufferView" : 9,
            "componentType" : 5126,
            "count" : 188,
            "type" : "VEC3"
        },
        {
            "bufferView" : 10,
            "componentType" : 5126,
            "count" : 188,
            "type" : "VEC2"
        },
        {
            "bufferView" : 11,
            "componentType" : 5123,
            "count" : 312,
            "type" : "SCALAR"
        },
        {
            "bufferView" : 12,
            "componentType" : 5126,
            "count" : 4,
            "max" : [
                0.9429946541786194,
                1.6410439014434814,
                -2.6265058517456055
            ],
            "min" : [
                0.9429945349693298,
                0,
                -3.3524136543273926
            ],
            "type" : "VEC3"
        },
        {
            "bufferView" : 13,
            "componentType" : 5126,
            "count" : 4,
            "type" : "VEC3"
        },
        {
            "bufferView" : 14,
            "componentType" : 5126,
            "count" : 4,
            "type" : "VEC2"
        },
        {
            "bufferView" : 15,
            "componentType" : 5123,
            "count" : 6,
            "type" : "SCALAR"
        },
        {
            "bufferView" : 16,
            "componentType" : 5126,
            "count" : 44,
            "max" : [
                4.741182327270508,
                4.089938163757324,
                2.0293054580688477
            ],
            "min" : [
                -2,
                0.3800734281539917,
                -4.079883575439453
            ],
            "type" : "VEC3"
        },
        {
            "bufferView" : 17,
            "componentType" : 5126,
            "count" : 44,
            "type" : "VEC3"
        },
        {
            "bufferView" : 18,
            "componentType" : 5126,
            "count" : 44,
            "type" : "VEC2"
        },
        {
            "bufferView" : 19,
            "componentType" : 5123,
            "count" : 66,
            "type" : "SCALAR"
        }
    ],
    "bufferViews" : [
        {
            "buffer" : 0,
            "byteLength" : 48,
            "byteOffset" : 0
        },
        {
            "buffer" : 0,
            "byteLength" : 48,
            "byteOffset" : 48
        },
        {
            "buffer" : 0,
            "byteLength" : 32,
            "byteOffset" : 96
        },
        {
            "buffer" : 0,
            "byteLength" : 12,
            "byteOffset" : 128
        },
        {
            "buffer" : 0,
            "byteLength" : 2136,
            "byteOffset" : 140
        },
        {
            "buffer" : 0,
            "byteLength" : 2136,
            "byteOffset" : 2276
        },
        {
            "buffer" : 0,
            "byteLength" : 1424,
            "byteOffset" : 4412
        },
        {
            "buffer" : 0,
            "byteLength" : 624,
            "byteOffset" : 5836
        },
        {
            "buffer" : 0,
            "byteLength" : 2256,
            "byteOffset" : 6460
        },
        {
            "buffer" : 0,
            "byteLength" : 2256,
            "byteOffset" : 8716
        },
        {
            "buffer" : 0,
            "byteLength" : 1504,
            "byteOffset" : 10972
        },
        {
            "buffer" : 0,
            "byteLength" : 624,
            "byteOffset" : 12476
        },
        {
            "buffer" : 0,
            "byteLength" : 48,
            "byteOffset" : 13100
        },
        {
            "buffer" : 0,
            "byteLength" : 48,
            "byteOffset" : 13148
        },
        {
            "buffer" : 0,
            "byteLength" : 32,
            "byteOffset" : 13196
        },
        {
            "buffer" : 0,
            "byteLength" : 12,
            "byteOffset" : 13228
        },
        {
            "buffer" : 0,
            "byteLength" : 528,
            "byteOffset" : 13240
        },
        {
            "buffer" : 0,
            "byteLength" : 528,
            "byteOffset" : 13768
        },
        {
            "buffer" : 0,
            "byteLength" : 352,
            "byteOffset" : 14296
        },
        {
            "buffer" : 0,
            "byteLength" : 132,
            "byteOffset" : 14648
        }
    ],
    "samplers" : [
        {
            "magFilter" : 9729,
            "minFilter" : 9987
        }
    ],
    "buffers" : [
        {
            "byteLength" : 14780,
            "uri" : "House.005.bin"
        }
    ]
}
