{
    "asset" : {
        "generator" : "Khronos glTF Blender I/O v1.6.16",
        "version" : "2.0"
    },
    "scene" : 0,
    "scenes" : [
        {
            "name" : "Scene",
            "nodes" : [
                1
            ]
        }
    ],
    "nodes" : [
        {
            "mesh" : 0,
            "name" : "Plane.007",
            "scale" : [
                0.007000000216066837,
                0.017045455053448677,
                0.007000000216066837
            ],
            "translation" : [
                0,
                0,
                0
            ]
        },
        {
            "children" : [
                0
            ],
            "mesh" : 1,
            "name" : "building_014",
            "translation" : [
                0,
                0,
                0
            ]
        }
    ],
    "materials" : [
        {
            "doubleSided" : true,
            "name" : "grass",
            "pbrMetallicRoughness" : {
                "baseColorFactor" : [
                    0.1336236149072647,
                    0.3620589077472687,
                    0.07870397716760635,
                    1
                ],
                "metallicFactor" : 0,
                "roughnessFactor" : 0.5
            }
        },
        {
            "doubleSided" : true,
            "name" : "Wall.003",
            "pbrMetallicRoughness" : {
                "baseColorFactor" : [
                    0.630214273929596,
                    0.5588722825050354,
                    0.43476149439811707,
                    1
                ],
                "metallicFactor" : 0,
                "roughnessFactor" : 0.5
            }
        },
        {
            "doubleSided" : true,
            "name" : "Roof.003",
            "pbrMetallicRoughness" : {
                "baseColorFactor" : [
                    0,
                    0.0016926751704886556,
                    0.1678604632616043,
                    1
                ],
                "metallicFactor" : 0,
                "roughnessFactor" : 0.5
            }
        },
        {
            "doubleSided" : true,
            "name" : "Window",
            "pbrMetallicRoughness" : {
                "baseColorTexture" : {
                    "index" : 0
                },
                "metallicFactor" : 0,
                "roughnessFactor" : 0.5
            }
        },
        {
            "doubleSided" : true,
            "name" : "Door",
            "pbrMetallicRoughness" : {
                "baseColorTexture" : {
                    "index" : 1
                },
                "metallicFactor" : 0,
                "roughnessFactor" : 0.5
            }
        }
    ],
    "meshes" : [
        {
            "name" : "Plane.003",
            "primitives" : [
                {
                    "attributes" : {
                        "POSITION" : 0,
                        "NORMAL" : 1,
                        "TEXCOORD_0" : 2
                    },
                    "indices" : 3,
                    "material" : 0
                }
            ]
        },
        {
            "name" : "building_014_mesh",
            "primitives" : [
                {
                    "attributes" : {
                        "POSITION" : 4,
                        "NORMAL" : 5,
                        "TEXCOORD_0" : 6
                    },
                    "indices" : 7,
                    "material" : 1
                },
                {
                    "attributes" : {
                        "POSITION" : 8,
                        "NORMAL" : 9,
                        "TEXCOORD_0" : 10
                    },
                    "indices" : 11,
                    "material" : 2
                },
                {
                    "attributes" : {
                        "POSITION" : 12,
                        "NORMAL" : 13,
                        "TEXCOORD_0" : 14
                    },
                    "indices" : 15,
                    "material" : 3
                },
                {
                    "attributes" : {
                        "POSITION" : 16,
                        "NORMAL" : 17,
                        "TEXCOORD_0" : 18
                    },
                    "indices" : 19,
                    "material" : 4
                }
            ]
        }
    ],
    "textures" : [
        {
            "sampler" : 0,
            "source" : 0
        },
        {
            "sampler" : 0,
            "source" : 1
        }
    ],
    "images" : [
        {
            "mimeType" : "image/jpeg",
            "name" : "window",
            "uri" : "window.jpg"
        },
        {
            "mimeType" : "image/jpeg",
            "name" : "door",
            "uri" : "door.jpg"
        }
    ],
    "accessors" : [
        {
            "bufferView" : 0,
            "componentType" : 5126,
            "count" : 4,
            "max" : [
                500,
                0,
                500
            ],
            "min" : [
                -500,
                0,
                -500
            ],
            "type" : "VEC3"
        },
        {
            "bufferView" : 1,
            "componentType" : 5126,
            "count" : 4,
            "type" : "VEC3"
        },
        {
            "bufferView" : 2,
            "componentType" : 5126,
            "count" : 4,
            "type" : "VEC2"
        },
        {
            "bufferView" : 3,
            "componentType" : 5123,
            "count" : 6,
            "type" : "SCALAR"
        },
        {
            "bufferView" : 4,
            "componentType" : 5126,
            "count" : 271,
            "max" : [
                3.6880788803100586,
                4,
                3.535984516143799
            ],
            "min" : [
                -2.0999999046325684,
                0,
                -3.1217269897460938
            ],
            "type" : "VEC3"
        },
        {
            "bufferView" : 5,
            "componentType" : 5126,
            "count" : 271,
            "type" : "VEC3"
        },
        {
            "bufferView" : 6,
            "componentType" : 5126,
            "count" : 271,
            "type" : "VEC2"
        },
        {
            "bufferView" : 7,
            "componentType" : 5123,
            "count" : 513,
            "type" : "SCALAR"
        },
        {
            "bufferView" : 8,
            "componentType" : 5126,
            "count" : 134,
            "max" : [
                3.6880788803100586,
                5.099999904632568,
                3.535984516143799
            ],
            "min" : [
                -2.0999999046325684,
                1.9511001110076904,
                -3.1217269897460938
            ],
            "type" : "VEC3"
        },
        {
            "bufferView" : 9,
            "componentType" : 5126,
            "count" : 134,
            "type" : "VEC3"
        },
        {
            "bufferView" : 10,
            "componentType" : 5126,
            "count" : 134,
            "type" : "VEC2"
        },
        {
            "bufferView" : 11,
            "componentType" : 5123,
            "count" : 222,
            "type" : "SCALAR"
        },
        {
            "bufferView" : 12,
            "componentType" : 5126,
            "count" : 32,
            "max" : [
                2.6711862087249756,
                3.8030409812927246,
                3.4359846115112305
            ],
            "min" : [
                -2,
                0.1658630669116974,
                -3.0217270851135254
            ],
            "type" : "VEC3"
        },
        {
            "bufferView" : 13,
            "componentType" : 5126,
            "count" : 32,
            "type" : "VEC3"
        },
        {
            "bufferView" : 14,
            "componentType" : 5126,
            "count" : 32,
            "type" : "VEC2"
        },
        {
            "bufferView" : 15,
            "componentType" : 5123,
            "count" : 48,
            "type" : "SCALAR"
        },
        {
            "bufferView" : 16,
            "componentType" : 5126,
            "count" : 4,
            "max" : [
                3.588695526123047,
                1.624523639678955,
                -0.5527801513671875
            ],
            "min" : [
                3.588078498840332,
                0,
                -1.279780387878418
            ],
            "type" : "VEC3"
        },
        {
            "bufferView" : 17,
            "componentType" : 5126,
            "count" : 4,
            "type" : "VEC3"
        },
        {
            "bufferView" : 18,
            "componentType" : 5126,
            "count" : 4,
            "type" : "VEC2"
        },
        {
            "bufferView" : 19,
            "componentType" : 5123,
            "count" : 6,
            "type" : "SCALAR"
        }
    ],
    "bufferViews" : [
        {
            "buffer" : 0,
            "byteLength" : 48,
            "byteOffset" : 0
        },
        {
            "buffer" : 0,
            "byteLength" : 48,
            "byteOffset" : 48
        },
        {
            "buffer" : 0,
            "byteLength" : 32,
            "byteOffset" : 96
        },
        {
            "buffer" : 0,
            "byteLength" : 12,
            "byteOffset" : 128
        },
        {
            "buffer" : 0,
            "byteLength" : 3252,
            "byteOffset" : 140
        },
        {
            "buffer" : 0,
            "byteLength" : 3252,
            "byteOffset" : 3392
        },
        {
            "buffer" : 0,
            "byteLength" : 2168,
            "byteOffset" : 6644
        },
        {
            "buffer" : 0,
            "byteLength" : 1026,
            "byteOffset" : 8812
        },
        {
            "buffer" : 0,
            "byteLength" : 1608,
            "byteOffset" : 9840
        },
        {
            "buffer" : 0,
            "byteLength" : 1608,
            "byteOffset" : 11448
        },
        {
            "buffer" : 0,
            "byteLength" : 1072,
            "byteOffset" : 13056
        },
        {
            "buffer" : 0,
            "byteLength" : 444,
            "byteOffset" : 14128
        },
        {
            "buffer" : 0,
            "byteLength" : 384,
            "byteOffset" : 14572
        },
        {
            "buffer" : 0,
            "byteLength" : 384,
            "byteOffset" : 14956
        },
        {
            "buffer" : 0,
            "byteLength" : 256,
            "byteOffset" : 15340
        },
        {
            "buffer" : 0,
            "byteLength" : 96,
            "byteOffset" : 15596
        },
        {
            "buffer" : 0,
            "byteLength" : 48,
            "byteOffset" : 15692
        },
        {
            "buffer" : 0,
            "byteLength" : 48,
            "byteOffset" : 15740
        },
        {
            "buffer" : 0,
            "byteLength" : 32,
            "byteOffset" : 15788
        },
        {
            "buffer" : 0,
            "byteLength" : 12,
            "byteOffset" : 15820
        }
    ],
    "samplers" : [
        {
            "magFilter" : 9729,
            "minFilter" : 9987
        }
    ],
    "buffers" : [
        {
            "byteLength" : 15832,
            "uri" : "House.007.bin"
        }
    ]
}
